<mxfile host="app.diagrams.net" modified="2024-02-06T05:42:51.594Z" agent="Mozilla/5.0 (Windows NT 10.0; Win64; x64) AppleWebKit/537.36 (KHTML, like Gecko) Chrome/121.0.0.0 Safari/537.36" version="23.1.1" etag="xKov_mkHJZX8pVwhtW2d" type="github">
  <diagram name="Trang-1" id="GbmUooOCP_BpeFQEdcKu">
    <mxGraphModel>
      <root>
        <mxCell id="0" />
        <mxCell id="1" parent="0" />
      </root>
    </mxGraphModel>
  </diagram>
</mxfile>
